# xmcd
#
# Track frame offsets:
#	150
#	15963
#	31231
#	49117
#	67612
#
# Disc length: 1165 seconds
#
# Revision: 0
# Processed by: cddbd v1.5.2PL0 Copyright (c) Steve Scherf et al.
# Submitted via: EasyCDDAExtractor 10.0.6.1
#
DISCID=2b048b05
DTITLE=Palatypus - Lazaretto
DYEAR=2007
DGENRE=Blues
TTITLE0=Dandelion Wine
TTITLE1=Thanksgiving Day Parade
TTITLE2=All I Own
TTITLE3=Again By Your Window
TTITLE4=Horse To Folly
EXTD=
EXTT0=
EXTT1=
EXTT2=
EXTT3=
EXTT4=
PLAYORDER=
